<svg width="12" height="13" viewBox="0 0 12 13" fill="none" xmlns="http://www.w3.org/2000/svg">
<path d="M6.01325 9.5C5.72684 9.49994 5.45218 9.39476 5.24969 9.2076L0.929687 5.21577C0.826536 5.12372 0.744259 5.0136 0.687657 4.89184C0.631056 4.77009 0.601262 4.63914 0.600016 4.50663C0.59877 4.37412 0.626096 4.24271 0.680399 4.12006C0.734703 3.99742 0.814896 3.886 0.9163 3.7923C1.0177 3.69859 1.13829 3.62449 1.27102 3.57432C1.40374 3.52414 1.54596 3.49889 1.68936 3.50004C1.83276 3.50119 1.97448 3.52872 2.10624 3.58102C2.23801 3.63332 2.35718 3.70935 2.45681 3.80466L6.01325 7.09093L9.56969 3.80466C9.77338 3.62288 10.0462 3.52229 10.3294 3.52456C10.6125 3.52684 10.8834 3.63179 11.0836 3.81682C11.2839 4.00185 11.3975 4.25215 11.3999 4.51381C11.4024 4.77547 11.2935 5.02756 11.0968 5.21577L6.77681 9.2076C6.57431 9.39476 6.29966 9.49994 6.01325 9.5Z" fill="#898587"/>
</svg>
