<svg width="12" height="12" viewBox="0 0 12 12" fill="none" xmlns="http://www.w3.org/2000/svg">
<path d="M10.2666 5.46589H6.53328V1.73255C6.53328 1.5911 6.47709 1.45545 6.37707 1.35543C6.27706 1.25541 6.1414 1.19922 5.99995 1.19922C5.8585 1.19922 5.72285 1.25541 5.62283 1.35543C5.52281 1.45545 5.46662 1.5911 5.46662 1.73255V5.46589H1.73328C1.59184 5.46589 1.45618 5.52208 1.35616 5.6221C1.25614 5.72212 1.19995 5.85777 1.19995 5.99922C1.19995 6.14067 1.25614 6.27632 1.35616 6.37634C1.45618 6.47636 1.59184 6.53255 1.73328 6.53255H5.46662V10.2659C5.46662 10.4073 5.52281 10.543 5.62283 10.643C5.72285 10.743 5.8585 10.7992 5.99995 10.7992C6.1414 10.7992 6.27706 10.743 6.37707 10.643C6.47709 10.543 6.53328 10.4073 6.53328 10.2659V6.53255H10.2666C10.4081 6.53255 10.5437 6.47636 10.6437 6.37634C10.7438 6.27632 10.8 6.14067 10.8 5.99922C10.8 5.85777 10.7438 5.72212 10.6437 5.6221C10.5437 5.52208 10.4081 5.46589 10.2666 5.46589Z" fill="#E74694"/>
</svg>
